<svg id="Layer_1" data-name="Layer 1" xmlns="http://www.w3.org/2000/svg" width="250" height="80" viewBox="0 0 250 80"><defs><style>.cls-1{fill:#231f20;}.cls-2{fill:#00b4cb;}.cls-3{fill:#84cdbb;}.cls-4{fill:#0080c5;}.cls-5{fill:#6db59e;}</style></defs><title>Artboard 1</title><path class="cls-1" d="M63,27.55c-.33-3.77-1.52-5.36-3.54-5.36-3,0-4.33,2.65-4.33,10.09S56.5,42.37,59.5,42.37c2.41,0,3.8-1.65,3.87-6.08H66c-.07,5.29-2.38,8.26-6.45,8.26-4.26,0-6.91-3.24-6.91-12.26S55.24,20,59.5,20c3.54,0,5.72,2.45,6.12,7.54Z"/><path class="cls-1" d="M76.07,35c-2.18.66-5.72,2.25-5.72,5,0,1.62.73,2.65,2.45,2.65a4.86,4.86,0,0,0,3.27-1.79Zm-7.64-3.24c.46-2.71,2-5,5.09-5s4.93,1.85,4.93,4.89v9.59a7.06,7.06,0,0,0,.43,3H76.4l-.3-1.45a6.29,6.29,0,0,1-3.67,1.78A4.17,4.17,0,0,1,68,40.12c0-4.23,4.66-6.38,8.1-7.14V31.75c0-1.89-1-3.07-2.48-3.07-1.82,0-2.71,1.82-3,3.37Z"/><path class="cls-1" d="M88.89,31.39c-.43-1.49-1.06-2.71-3-2.71a1.93,1.93,0,0,0-1.92,2c0,3.5,7.27,3.7,7.27,9.06a4.61,4.61,0,0,1-4.7,4.76c-3.11,0-4.66-1.69-5.49-4.56l2.18-.46c.5,1.52,1.39,3,3.14,3A2.62,2.62,0,0,0,88.89,40c0-4-7.27-4-7.27-9.09a4.26,4.26,0,0,1,4.46-4.16c2.65,0,4.23,1.52,4.79,4.1Z"/><path class="cls-1" d="M100.76,34c-.07-3.7-.73-5.35-2.88-5.35C96.17,28.68,95,29.94,95,34ZM95,36v1c0,4.2,1,5.59,3.21,5.59,1.82,0,2.58-1.69,2.88-3.24l2.25.26a5.5,5.5,0,0,1-5.46,5c-3.6,0-5.26-2.71-5.26-8.93s1.65-8.93,5.26-8.93,5.26,3.24,5.26,8.2V36Z"/><path class="cls-1" d="M105.62,27l3.24,13.16h.07L111.57,27H114l-3.93,16.83c-.89,3.77-2.55,6-5.42,6h-1.22v-2h.73c1.88,0,3.11-1.36,3.57-3.77L103.18,27Z"/><path class="cls-1" d="M127.3,27.55c-.33-3.77-1.52-5.36-3.54-5.36-3,0-4.33,2.65-4.33,10.09s1.32,10.08,4.33,10.08c2.41,0,3.8-1.65,3.87-6.08h2.58c-.07,5.29-2.38,8.26-6.45,8.26-4.27,0-6.91-3.24-6.91-12.26S119.5,20,123.76,20c3.54,0,5.72,2.45,6.11,7.54Z"/><path class="cls-1" d="M142.94,44.22h-2.25V42.33c-1.13,1.16-2.78,2.21-3.9,2.21-2.38,0-3.77-1.32-3.77-4.5V27h2.38v12.7c0,2,.6,2.84,1.88,2.84s2.22-.79,3.27-2.12V27h2.38Z"/><rect class="cls-1" x="146.57" y="20.35" width="2.38" height="23.87"/><path class="cls-1" d="M155.17,40.91a3.72,3.72,0,0,0,2.51,1.65c2,0,3.24-1.65,3.24-6.94s-1.15-6.94-3.17-6.94a4,4,0,0,0-2.58,1.52Zm-.93,3.31h-1.85a18.8,18.8,0,0,0,.39-4.63V20.35h2.38v7.93a4.68,4.68,0,0,1,3.17-1.59c2.71,0,5,2.31,5,8.93s-2.25,8.92-5,8.92a4.26,4.26,0,0,1-3.57-2Z"/><path class="cls-1" d="M173,34c-.06-3.7-.73-5.35-2.87-5.35-1.72,0-2.84,1.26-2.88,5.35Zm-5.75,2v1c0,4.2,1,5.59,3.21,5.59,1.82,0,2.58-1.69,2.88-3.24l2.25.26a5.5,5.5,0,0,1-5.45,5c-3.61,0-5.26-2.71-5.26-8.93s1.65-8.93,5.26-8.93,5.26,3.24,5.26,8.2V36Z"/><path class="cls-1" d="M177.48,27h2.38v2.08h.06c1.42-2.08,2.48-2.41,4.36-2.41v2.25c-1.78,0-3.14.59-4.43,3V44.22h-2.38Z"/><path class="cls-1" d="M192.33,31.39c-.43-1.49-1.06-2.71-3-2.71a1.93,1.93,0,0,0-1.92,2c0,3.5,7.27,3.7,7.27,9.06A4.6,4.6,0,0,1,190,44.55c-3.11,0-4.66-1.69-5.48-4.56l2.18-.46c.49,1.52,1.39,3,3.14,3A2.62,2.62,0,0,0,192.33,40c0-4-7.27-4-7.27-9.09a4.26,4.26,0,0,1,4.46-4.16c2.65,0,4.23,1.52,4.79,4.1Z"/><path class="cls-1" d="M201.32,42.57c2,0,2.88-1.26,2.88-6.94s-.86-6.94-2.88-6.94-2.88,1.25-2.88,6.94.86,6.94,2.88,6.94m0-15.87c3.61,0,5.26,2.71,5.26,8.93s-1.65,8.92-5.26,8.92-5.26-2.71-5.26-8.92,1.65-8.93,5.26-8.93"/><path class="cls-1" d="M208.93,27h2.25v1.89c1.13-1.16,2.78-2.22,3.9-2.22,2.38,0,3.77,1.32,3.77,4.5v13h-2.38V31.52c0-2-.6-2.84-1.89-2.84s-2.21.79-3.27,2.11V44.22h-2.38Z"/><path class="cls-2" d="M225.69,43.05h.73c2,0,3.13-.83,3.13-5.14s-1.15-5.14-3.13-5.14h-.73Zm-1.36-11.42h2.33c2.65,0,4.25,1.46,4.25,6.28s-1.6,6.28-4.25,6.28h-2.33Z"/><path class="cls-2" d="M233.75,43.05h.73c2,0,3.13-.83,3.13-5.14s-1.15-5.14-3.13-5.14h-.73Zm-1.36-11.42h2.33c2.65,0,4.25,1.46,4.25,6.28s-1.6,6.28-4.25,6.28h-2.33Z"/><path class="cls-2" d="M244.95,34.87c-.1-1.29-.63-2.26-1.93-2.26a1.61,1.61,0,0,0-1.72,1.65c0,2.84,5,2.87,5,6.91a2.93,2.93,0,0,1-3.22,3.2c-2,0-3.15-1.44-3.19-3.55h1.25c0,1.48.73,2.4,2.07,2.4a1.81,1.81,0,0,0,1.87-2.07c0-2.86-5-3.19-5-6.77a2.81,2.81,0,0,1,3-2.93c1.81,0,3,1.22,3.1,3.41Z"/><path class="cls-2" d="M14.36,7.55H10.68l-.34,0c-8,22.27-1.59,39.53,3.91,49.16h2.18C7.59,28.68,24.29,17.4,24.29,17.4S20.15,11,14.36,7.55"/><path class="cls-3" d="M24.82,67.08h1.29c7.79-6.66,26.43-26.62,8.62-53.27h-4l-5.55,3.5S47,38.88,24.82,67.08"/><path class="cls-4" d="M19.93,32.44c1.86,6,4.93,19,1.47,30.89h1.38c2.54-4.07,9-17.93-.65-30.89Z"/><path class="cls-5" d="M52.44,51.88h2L58,64.65l3.51-12.77h2v15.2h-1.4V54.44h0L58.59,67.08H57.34L53.87,54.44h0V67.08h-1.4Z"/><path class="cls-5" d="M67.43,54.1H66.11V51.88h1.32Zm-1.32,2h1.32v11H66.11Z"/><path class="cls-5" d="M69.87,51.88h1.32v15.2H69.87Z"/><path class="cls-5" d="M73.63,51.88H75v15.2H73.63Z"/><path class="cls-5" d="M89.94,56.46c-.33-2.15-1.55-3.24-3.11-3.24-2.64,0-3.76,3-3.76,6.15,0,3.47,1.12,6.37,3.77,6.37,1.93,0,3.08-1.87,3.2-4.39h1.48c-.29,3.81-2,6.09-4.8,6.09-3.43,0-5.13-3.49-5.13-7.92s1.83-8,5.25-8c2.31,0,4.24,1.7,4.57,4.94Z"/><path class="cls-5" d="M93.41,56.07h1.24V58.4h0c.64-1.79,1.52-2.64,3-2.58v1.92c-2.13,0-2.9,1.64-2.9,4.45v4.9H93.41Z"/><path class="cls-5" d="M105.77,63.59c-.36,2.45-1.62,3.75-3.43,3.75-2.56,0-3.77-2.45-3.85-5.79s1.58-5.73,3.77-5.73c2.84,0,3.71,3.64,3.63,6.3h-6c0,1.92.75,3.62,2.5,3.62,1.1,0,1.85-.7,2.08-2.15Zm-1.27-3.07c-.08-1.73-1-3.11-2.31-3.11s-2.22,1.4-2.3,3.11Z"/><path class="cls-5" d="M114.43,63.59c-.36,2.45-1.62,3.75-3.43,3.75-2.56,0-3.77-2.45-3.85-5.79s1.58-5.73,3.77-5.73c2.84,0,3.71,3.64,3.63,6.3h-6c0,1.92.75,3.62,2.5,3.62,1.1,0,1.85-.7,2.08-2.15Zm-1.27-3.07c-.08-1.73-1-3.11-2.31-3.11s-2.22,1.4-2.3,3.11Z"/><path class="cls-5" d="M116.31,51.88h1.32v9l3.67-4.81h1.77l-3.18,4,3.42,7h-1.68l-2.75-5.75-1.24,1.58v4.17h-1.32Z"/><path class="cls-5" d="M129.42,51.88h7.29v1.7H130.9v4.83H136v1.7H130.9v7h-1.48Z"/><path class="cls-5" d="M145.54,67a1.47,1.47,0,0,1-.95.3c-.68,0-1.12-.51-1.12-1.7a3.19,3.19,0,0,1-2.83,1.7c-1.46,0-2.66-.87-2.66-3.09,0-2.49,1.35-3,2.72-3.38s2.7-.23,2.7-1.62c0-1.6-1-1.83-1.79-1.83-1.12,0-1.94.47-2,2.09h-1.32c.08-2.72,1.6-3.68,3.4-3.68,1.44,0,3,.45,3,3v5.66c0,.85,0,1.24.42,1.24a1,1,0,0,0,.4-.11ZM143.4,61.4c-1,1-4,0-4,2.72a1.45,1.45,0,0,0,1.56,1.62,2.43,2.43,0,0,0,2.45-2.49Z"/><path class="cls-5" d="M147.08,56.07h1.24v1.62h0a2.81,2.81,0,0,1,2.59-1.87,2.16,2.16,0,0,1,2.21,1.87,2.84,2.84,0,0,1,2.51-1.87c1.6,0,2.67.92,2.67,3.19v8.07H157V59.86c0-1.36-.26-2.45-1.55-2.45s-2.1,1.11-2.1,2.81v6.85h-1.32V59.86c0-1.43-.33-2.45-1.51-2.45-1.55,0-2.14,2-2.14,2.81v6.85h-1.32Z"/><path class="cls-5" d="M162,54.1h-1.32V51.88H162Zm-1.32,2H162v11h-1.32Z"/><path class="cls-5" d="M164.47,51.88h1.32v15.2h-1.32Z"/><path class="cls-5" d="M171.3,68.55c-.62,2.13-1.15,2.94-2.33,2.94a2,2,0,0,1-.92-.19V69.64a2.11,2.11,0,0,0,.77.26c.54,0,.84-.34,1.09-1l.54-1.87-3.18-10.94h1.49l2.34,9h0l2.25-9h1.4Z"/><path class="cls-5" d="M181,51.88h3.8c3.42,0,5.33,2.36,5.33,7.24,0,5.09-1.63,8-5.33,8H181Zm1.47,13.5H185c1,0,3.73-.38,3.73-6,0-3.62-1-5.81-3.7-5.81h-2.49Z"/><path class="cls-5" d="M198.91,63.59c-.36,2.45-1.62,3.75-3.44,3.75-2.56,0-3.77-2.45-3.85-5.79s1.58-5.73,3.77-5.73c2.84,0,3.71,3.64,3.63,6.3h-6c0,1.92.75,3.62,2.5,3.62,1.11,0,1.85-.7,2.08-2.15Zm-1.27-3.07c-.08-1.73-1-3.11-2.32-3.11s-2.22,1.4-2.3,3.11Z"/><path class="cls-5" d="M200.71,56.07H202v1.75h0a2.74,2.74,0,0,1,2.61-2c2.11,0,2.77,1.66,2.77,4v7.24H206V59.63c0-1.36-.62-2.21-1.63-2.21-1.6,0-2.38,1.47-2.38,3.45v6.22h-1.32Z"/><path class="cls-5" d="M211.48,56.07h1.6v1.6h-1.6v6.83c0,.85.17,1,1,1h.61v1.6h-1c-1.37,0-1.91-.38-1.91-2.41v-7h-1.37v-1.6h1.37v-3.3h1.32Z"/><path class="cls-5" d="M216.25,54.1h-1.32V51.88h1.32Zm-1.32,2h1.32v11h-1.32Z"/><path class="cls-5" d="M219.41,63.61a2,2,0,0,0,2.16,2.13c.82,0,1.94-.26,1.94-1.64,0-2.83-5.25-.92-5.25-5.15a2.91,2.91,0,0,1,3-3.13c1.8,0,3.17.77,3.29,3.45h-1.32a1.76,1.76,0,0,0-1.86-1.85c-.79,0-1.71.3-1.71,1.4,0,1.28,1.4,1.53,2.63,1.92s2.63,1,2.63,3.13a3.17,3.17,0,0,1-3.42,3.47c-1.8,0-3.32-1-3.4-3.73Z"/><path class="cls-5" d="M228.52,56.07h1.6v1.6h-1.6v6.83c0,.85.17,1,1,1h.61v1.6h-1c-1.37,0-1.91-.38-1.91-2.41v-7h-1.37v-1.6h1.37v-3.3h1.32Z"/><path class="cls-5" d="M231.84,56.07h1.24V58.4h0c.64-1.79,1.52-2.64,3-2.58v1.92c-2.13,0-2.9,1.64-2.9,4.45v4.9h-1.32Z"/><path class="cls-5" d="M240.53,68.55c-.62,2.13-1.15,2.94-2.33,2.94a2,2,0,0,1-.92-.19V69.64a2.11,2.11,0,0,0,.77.26c.54,0,.84-.34,1.09-1l.54-1.87L236.5,56.07H238l2.34,9h0l2.25-9H244Z"/></svg>